<svg width="115" height="20" viewBox="0 0 115 20" fill="none" xmlns="http://www.w3.org/2000/svg">
<path d="M114.993 14.7721C114.993 15.8869 114.73 16.8396 114.203 17.6301C113.676 18.4003 112.885 18.9882 111.831 19.3935C110.777 19.7989 109.47 20.0016 107.909 20.0016C106.754 20.0016 105.761 19.9205 104.93 19.7584C104.099 19.6165 103.268 19.3733 102.437 19.0287V15.289C103.329 15.6944 104.291 16.0288 105.325 16.2923C106.359 16.5558 107.271 16.6876 108.061 16.6876C108.953 16.6876 109.582 16.5558 109.946 16.2923C110.332 16.0288 110.524 15.6843 110.524 15.2586C110.524 14.9748 110.443 14.7215 110.281 14.4985C110.139 14.2755 109.815 14.0222 109.308 13.7384C108.801 13.4546 108.011 13.0898 106.936 12.6439C105.903 12.1979 105.051 11.7621 104.383 11.3365C103.714 10.8906 103.217 10.3636 102.893 9.75548C102.568 9.12713 102.406 8.34676 102.406 7.41437C102.406 5.87391 103.004 4.71855 104.2 3.94832C105.396 3.17809 106.987 2.79297 108.974 2.79297C110.007 2.79297 110.99 2.89432 111.923 3.09701C112.855 3.2997 113.818 3.63415 114.811 4.10034L113.443 7.35357C112.896 7.11033 112.369 6.89751 111.862 6.71508C111.355 6.53266 110.859 6.39077 110.372 6.28943C109.906 6.18808 109.419 6.13741 108.913 6.13741C108.244 6.13741 107.737 6.22862 107.392 6.41104C107.068 6.59347 106.906 6.8671 106.906 7.23195C106.906 7.49545 106.987 7.73868 107.149 7.96164C107.332 8.16434 107.666 8.3873 108.153 8.63053C108.659 8.87376 109.399 9.19807 110.372 9.60346C111.325 9.98858 112.146 10.394 112.835 10.8196C113.524 11.225 114.051 11.7419 114.416 12.3702C114.801 12.9783 114.993 13.7789 114.993 14.7721Z" fill="#006DFF"/>
<path d="M93.8718 2.79297C95.7568 2.79297 97.1757 3.27943 98.1283 4.25236C99.1012 5.20502 99.5877 6.74549 99.5877 8.87377V19.6976H95.0575V9.99871C95.0575 8.80282 94.8548 7.91097 94.4494 7.32316C94.044 6.71508 93.4157 6.41104 92.5644 6.41104C91.3685 6.41104 90.5172 6.8367 90.0105 7.68801C89.5037 8.53932 89.2504 9.76561 89.2504 11.3669V19.6976H84.7202V9.99871C84.7202 9.20821 84.629 8.54946 84.4465 8.02245C84.2641 7.49545 83.9905 7.1002 83.6256 6.8367C83.2608 6.55293 82.7946 6.41104 82.227 6.41104C81.396 6.41104 80.7372 6.62387 80.2508 7.04953C79.7643 7.47518 79.4197 8.0934 79.217 8.90417C79.0144 9.71494 78.913 10.7081 78.913 11.8838V19.6976H74.3828V3.09701H77.8489L78.4569 5.22529H78.7002C79.0448 4.65775 79.4704 4.20169 79.9771 3.85711C80.4839 3.49226 81.0413 3.22876 81.6494 3.06661C82.2777 2.88418 82.9061 2.79297 83.5344 2.79297C84.7506 2.79297 85.7843 2.99566 86.6356 3.40105C87.4869 3.78617 88.1355 4.39425 88.5815 5.22529H88.9767C89.4835 4.37398 90.1827 3.75576 91.0746 3.37065C91.9867 2.98553 92.9191 2.79297 93.8718 2.79297Z" fill="#006DFF"/>
<path d="M63.9441 2.76172C66.1737 2.76172 67.8763 3.24818 69.052 4.22111C70.2479 5.17377 70.8458 6.64329 70.8458 8.62969V19.6967H67.6838L66.8021 17.4468H66.6805C66.2143 18.0346 65.7278 18.5211 65.2211 18.9062C64.7346 19.2913 64.1671 19.565 63.5184 19.7271C62.8901 19.9096 62.1097 20.0008 61.1773 20.0008C60.2044 20.0008 59.3227 19.8183 58.5322 19.4535C57.762 19.0684 57.1539 18.4907 56.7079 17.7205C56.262 16.93 56.0391 15.9368 56.0391 14.7409C56.0391 12.9775 56.6573 11.6802 57.8937 10.8492C59.1301 9.99786 60.9848 9.53167 63.4576 9.45059L66.346 9.35938V8.62969C66.346 7.7581 66.1129 7.11962 65.6467 6.71424C65.2008 6.30885 64.5724 6.10616 63.7617 6.10616C62.9509 6.10616 62.1604 6.22777 61.3902 6.471C60.6199 6.69397 59.8497 6.97774 59.0795 7.32232L57.5897 4.25151C58.4815 3.78532 59.4646 3.42047 60.5388 3.15697C61.6334 2.89347 62.7685 2.76172 63.9441 2.76172ZM64.5826 12.0653C63.1232 12.1059 62.1097 12.3694 61.5422 12.8558C60.9746 13.3423 60.6909 13.9808 60.6909 14.7713C60.6909 15.4604 60.8936 15.957 61.2989 16.2611C61.7043 16.5449 62.2313 16.6867 62.88 16.6867C63.8529 16.6867 64.6738 16.403 65.3427 15.8354C66.0116 15.2476 66.346 14.4267 66.346 13.3727V12.0045L64.5826 12.0653Z" fill="#006DFF"/>
<path d="M54.2916 19.6963H41.1875V17.0207L48.8797 6.56176H41.6436V3.0957H54.018V6.04489L46.5386 16.2302H54.2916V19.6963Z" fill="#006DFF"/>
<path fill-rule="evenodd" clip-rule="evenodd" d="M17.9625 14.0137V1.62021e-07L14.2559 0L14.2559 13.9665L3.99376 4.90704L1.54068 7.68578L10.899 15.9473H0V19.6539H31.6488V15.9473H21.373L30.7312 7.68578L28.2782 4.90704L17.9625 14.0137Z" fill="#006DFF"/>
</svg>
