<svg width="115" height="21" viewBox="0 0 115 21" fill="none" xmlns="http://www.w3.org/2000/svg">
<path d="M114.993 15.0964C114.993 16.2112 114.73 17.1638 114.203 17.9543C113.676 18.7246 112.885 19.3124 111.831 19.7178C110.777 20.1231 109.47 20.3258 107.909 20.3258C106.754 20.3258 105.761 20.2448 104.93 20.0826C104.099 19.9407 103.268 19.6975 102.437 19.3529V15.6132C103.329 16.0186 104.291 16.353 105.325 16.6166C106.359 16.8801 107.271 17.0118 108.061 17.0118C108.953 17.0118 109.582 16.8801 109.946 16.6166C110.332 16.353 110.524 16.0085 110.524 15.5828C110.524 15.299 110.443 15.0457 110.281 14.8227C110.139 14.5998 109.815 14.3464 109.308 14.0626C108.801 13.7788 108.011 13.414 106.936 12.9681C105.903 12.5222 105.051 12.0864 104.383 11.6607C103.714 11.2148 103.217 10.6878 102.893 10.0797C102.568 9.45135 102.406 8.67098 102.406 7.73859C102.406 6.19813 103.004 5.04277 104.2 4.27254C105.396 3.5023 106.987 3.11719 108.974 3.11719C110.007 3.11719 110.99 3.21853 111.923 3.42123C112.855 3.62392 113.818 3.95837 114.811 4.42456L113.443 7.67778C112.896 7.43455 112.369 7.22172 111.862 7.0393C111.355 6.85688 110.859 6.71499 110.372 6.61365C109.906 6.5123 109.419 6.46163 108.913 6.46163C108.244 6.46163 107.737 6.55284 107.392 6.73526C107.068 6.91768 106.906 7.19132 106.906 7.55617C106.906 7.81967 106.987 8.0629 107.149 8.28586C107.332 8.48856 107.666 8.71152 108.153 8.95475C108.659 9.19798 109.399 9.52229 110.372 9.92768C111.325 10.3128 112.146 10.7182 112.835 11.1438C113.524 11.5492 114.051 12.0661 114.416 12.6944C114.801 13.3025 114.993 14.1032 114.993 15.0964Z" fill="white"/>
<path d="M93.8776 3.11719C95.7627 3.11719 97.1815 3.60365 98.1342 4.57658C99.1071 5.52924 99.5936 7.06971 99.5936 9.19798V20.0218H95.0634V10.3229C95.0634 9.12704 94.8607 8.23519 94.4553 7.64738C94.0499 7.0393 93.4216 6.73526 92.5703 6.73526C91.3744 6.73526 90.523 7.16092 90.0163 8.01223C89.5096 8.86354 89.2562 10.0898 89.2562 11.6911V20.0218H84.726V10.3229C84.726 9.53243 84.6348 8.87367 84.4524 8.34667C84.27 7.81967 83.9963 7.42442 83.6315 7.16092C83.2666 6.87715 82.8004 6.73526 82.2329 6.73526C81.4019 6.73526 80.7431 6.94809 80.2566 7.37375C79.7702 7.7994 79.4256 8.41761 79.2229 9.22839C79.0202 10.0392 78.9189 11.0324 78.9189 12.208V20.0218H74.3887V3.42123H77.8547L78.4628 5.54951H78.706C79.0506 4.98197 79.4763 4.52591 79.983 4.18133C80.4897 3.81648 81.0471 3.55298 81.6552 3.39082C82.2836 3.2084 82.9119 3.11719 83.5403 3.11719C84.7564 3.11719 85.7902 3.31988 86.6415 3.72527C87.4928 4.11039 88.1414 4.71846 88.5873 5.54951H88.9826C89.4893 4.6982 90.1886 4.07998 91.0805 3.69487C91.9926 3.30975 92.925 3.11719 93.8776 3.11719Z" fill="white"/>
<path d="M63.9441 3.08594C66.1737 3.08594 67.8763 3.5724 69.052 4.54533C70.2479 5.49799 70.8458 6.96751 70.8458 8.9539V20.021H67.6838L66.8021 17.7711H66.6805C66.2143 18.3589 65.7278 18.8453 65.2211 19.2304C64.7346 19.6156 64.1671 19.8892 63.5184 20.0514C62.8901 20.2338 62.1097 20.325 61.1773 20.325C60.2044 20.325 59.3227 20.1426 58.5322 19.7777C57.762 19.3926 57.1539 18.8149 56.7079 18.0447C56.262 17.2542 56.0391 16.261 56.0391 15.0651C56.0391 13.3017 56.6573 12.0044 57.8937 11.1734C59.1301 10.3221 60.9848 9.85589 63.4576 9.77481L66.346 9.6836V8.9539C66.346 8.08232 66.1129 7.44384 65.6467 7.03845C65.2008 6.63307 64.5724 6.43037 63.7617 6.43037C62.9509 6.43037 62.1604 6.55199 61.3902 6.79522C60.6199 7.01818 59.8497 7.30196 59.0795 7.64653L57.5897 4.57573C58.4815 4.10954 59.4646 3.74469 60.5388 3.48119C61.6334 3.21769 62.7685 3.08594 63.9441 3.08594ZM64.5826 12.3896C63.1232 12.4301 62.1097 12.6936 61.5422 13.1801C60.9746 13.6665 60.6909 14.305 60.6909 15.0955C60.6909 15.7847 60.8936 16.2813 61.2989 16.5853C61.7043 16.8691 62.2313 17.011 62.88 17.011C63.8529 17.011 64.6738 16.7272 65.3427 16.1596C66.0116 15.5718 66.346 14.7509 66.346 13.6969V12.3287L64.5826 12.3896Z" fill="white"/>
<path d="M54.2955 20.0205H41.1914V17.3449L48.8836 6.88597H41.6475V3.41992H54.0219V6.36911L46.5425 16.5544H54.2955V20.0205Z" fill="white"/>
<path fill-rule="evenodd" clip-rule="evenodd" d="M17.9625 14.3379V0.324219L14.2559 0.324219L14.2559 14.2907L3.99376 5.23126L1.54068 8.01L10.899 16.2715H0V19.9781H31.6488V16.2715H21.373L30.7312 8.01L28.2782 5.23126L17.9625 14.3379Z" fill="white"/>
</svg>
